/* XPM */
static char *front_l1721837483[] = {
/* columns rows colors chars-per-pixel */
"32 32 5 1 ",
"  c None",
". c black",
"X c #1B1B1B",
"o c red",
"O c white",
/* pixels */
"                                ",
"        XXXX        XXXXX       ",
"       XXOOX        XOOOX       ",
"       XOOOXX      XXOOOX       ",
"       XOOOOXX    XXOOOOX       ",
"       XOOOOOX    XOOOOOX       ",
"       XXOOOOX XXXXOOOOXX       ",
"        XOOOOXXXOOOOOOXX        ",
"       XXOOOOOOOOOOOOXXX        ",
"      XXOOOOOOOOOOOOOOOXX       ",
"     XXOOOOXXOOOOXXOOOOOX       ",
"     XOOOOOXXOOOOXXOOOOOX       ",
"     XOOOOOXXOOOOXXOOOOOXX      ",
"     XOOOOOX.OOOOXXOOOOOOX      ",
"     XOOOOOXoOOOOoXOOOOOOX      ",
"     XOOOOOOOOOOOOOOOOOOXX      ",
"     XOOOOOOOXXXXOOOOOOOX       ",
"     XXOOOOOOOXXOOOOOOOXX       ",
"      XXXXOOOOOOOOOOXXXXX       ",
"     XXOOXXOOOOOOOOXXOOOXX      ",
"     XOOOOOOOOOOOOOOOOOOOX      ",
"    XXOOOOOOOOOOOOOOOOOOOXX     ",
"    XOOOOOOOOOOOOOOOOOOOOOX     ",
"    XOOOOOOOOOOOOOOOOOOOOOX     ",
"    XXOOOXOOOOOOOOOOOXXOOXX     ",
"     XOOXXOOOOOOOOOOOXXXXX      ",
"     XXXXXOOOOXXXOOOOX XX       ",
"         XOOOOOXOOOOOX          ",
"         XOOOOOXOOOOOX          ",
"         XOOOOOXXXXXXX          ",
"         XXXOOXX                ",
"           XXXX                 "
};
