/* XPM */
static char *right1721837482[] = {
/* columns rows colors chars-per-pixel */
"32 32 4 1 ",
"  c None",
". c #1B1B1B",
"X c red",
"o c white",
/* pixels */
"         ....                   ",
"        ..oo..                  ",
"        .oooo.                  ",
"        .oooo..                 ",
"        ..oooo.                 ",
"         .oooo.                 ",
"         ..ooo........          ",
"          ..ooooooooo..         ",
"         ..ooooooooooo..        ",
"        ..ooooooooooooo.        ",
"        .oooooooooooooo.        ",
"       ..oooooooooo..oo..       ",
"       .ooooooooooo..ooo.       ",
"       .ooooooooooo..oo..       ",
"       .ooooooooooo.Xoo..       ",
"       ..oooooooooooooo.        ",
"        .ooooooooooooo..        ",
"        ..oooooooooooo..        ",
"         ...oooooooo...         ",
"          ..oooooooo.           ",
"          .ooooooooo..          ",
"         ..oooooooooo.          ",
"         .oooo.ooooo..          ",
"         .oooo..oooo.           ",
"         .ooooo.oooo.           ",
"         .ooooo.ooo..           ",
"         ...oo..oo..            ",
"           ....oo..             ",
"            .oooo.              ",
"            .oooo..             ",
"            .ooooo.             ",
"            .......             "
};
