/* XPM */
static char *_f3f8e9ca17c4338f42fb13a567231cfXg2Z32M7wMXQ7ERh[] = {
/* columns rows colors chars-per-pixel */
"32 32 8 1 ",
"  c None",
". c #222222",
"X c #4E6474",
"o c #6A8A99",
"O c #84ADA7",
"+ c gray96",
"@ c #DADADA",
"# c #574639",
/* pixels */
"                                ",
"                                ",
"                                ",
"                                ",
"                                ",
"                                ",
"             .........          ",
"            .XXXXXXXXX.         ",
"            .XooooooOO.         ",
"            .XooooooOO.         ",
"            .XooooooOO.         ",
"            .X......oo.         ",
"       ..   .Xo....oOO.         ",
"       .+.  .oooo.oooo.         ",
"       .+.  .oooo.oooo.         ",
"       .@+.. .ooo.oo.. .        ",
"       .@+.......X.....#.       ",
"        .@..o.OooXXX..X#.       ",
"         ...o.OooooX..X#.       ",
"         ...o.OooooX..X#.       ",
"            ..oooooo...#.       ",
"             .XXX..o...#.       ",
"             .X..  ... .        ",
"             ..                 ",
"             ..                 ",
"                                ",
"                                ",
"                                ",
"                                ",
"                                ",
"                                ",
"                                "
};
