/* XPM */
static char *_8f3ad4f95f140c7f03cc43a4b205bd9pGYgyj6ZJjwiGtpp[] = {
/* columns rows colors chars-per-pixel */
"32 32 9 1 ",
"  c None",
". c #222222",
"X c #4E6474",
"o c #6A8A99",
"O c #84ADA7",
"+ c gray96",
"@ c #DADADA",
"# c #574639",
"$ c #735F4B",
/* pixels */
"                                ",
"                                ",
"                                ",
"                                ",
"                                ",
"                                ",
"                                ",
"             .........          ",
"            .XXXXXXXXX.         ",
"            .XXXXXXXXX.         ",
"            .XoooooooO.         ",
"            .XoooooooO.         ",
"       ..   .X.......o.         ",
"       .+.. .Xoo...ooO.         ",
"       .+.. .Xoo...ooO.         ",
"       .@++..oooo.oooo.         ",
"       .@++...ooo.ooo..         ",
"        .@@.o....X...##.        ",
"         ...o.XXXXo..#$.        ",
"         ...o.XXXXo..#$.        ",
"            ..ooooo..##.        ",
"             .XXXXo..#$.        ",
"             .XX...oo.#.        ",
"             ....  .. .         ",
"             ....  .. .         ",
"                                ",
"                                ",
"                                ",
"                                ",
"                                ",
"                                ",
"                                "
};
