/* XPM */
static char *left1721837483[] = {
/* columns rows colors chars-per-pixel */
"32 32 4 1 ",
"  c None",
". c #1B1B1B",
"X c red",
"o c white",
/* pixels */
"                   ....         ",
"                  ..oo..        ",
"                  .oooo.        ",
"                 ..oooo.        ",
"                 .oooo..        ",
"                 .oooo.         ",
"          ........ooo..         ",
"         ..ooooooooo..          ",
"        ..ooooooooooo..         ",
"        .ooooooooooooo..        ",
"        .oooooooooooooo.        ",
"       ..oo..oooooooooo..       ",
"       .ooo..ooooooooooo.       ",
"       ..oo..ooooooooooo.       ",
"       ..ooX.ooooooooooo.       ",
"        .oooooooooooooo..       ",
"        ..ooooooooooooo.        ",
"        ..oooooooooooo..        ",
"         ...oooooooo...         ",
"           .oooooooo..          ",
"          ..ooooooooo.          ",
"          .oooooooooo..         ",
"          ..ooooo.oooo.         ",
"           .oooo..oooo.         ",
"           .oooo.ooooo.         ",
"           ..ooo.ooooo.         ",
"            ..oo..oo...         ",
"             ..oo....           ",
"              .oooo.            ",
"             ..oooo.            ",
"             .ooooo.            ",
"             .......            "
};
