/* XPM */
static char *result[] = {
/* columns rows colors chars-per-pixel */
"32 32 8 1 ",
"  c #222222",
". c #574639",
"X c #C1C9CE",
"o c #CBD6DB",
"O c #DADADA",
"+ c #D4E2E0",
"@ c gray96",
"# c None",
/* pixels */
"################################",
"################################",
"################################",
"################################",
"################################",
"################################",
"#############         ##########",
"############ XXXXXXXXX #########",
"############ Xoooooo++ #########",
"############ Xoooooo++ #########",
"############ Xoooooo++ #########",
"############ Xoooooooo #########",
"############ Xoooooo++ ###  ####",
"############ Xoooooo++ ###  ####",
"#########    ooooooooo #  @ ####",
"########  ..  oooooo  # @@O ####",
"######## .  o           @@O ####",
"######## .  o XXXXo ooX OO #####",
"######## ...  XXooo ooX   ######",
"######## ...  XXooo ooX   ######",
"######### ..  oooooo   #########",
"##########  # XXX  o  ##########",
"############# XX ## ############",
"############# XX ## ############",
"#############   ################",
"################################",
"################################",
"################################",
"################################",
"################################",
"################################",
"################################"
};
