/* XPM */
static char *_5003634ace542ceab8663bfad0b8946vETpdrhBZJ1JYRTZ[] = {
/* columns rows colors chars-per-pixel */
"32 32 8 1 ",
"  c None",
". c #222222",
"X c #C1C9CE",
"o c #CBD6DB",
"O c #D4E2E0",
"+ c gray96",
"@ c #DADADA",
"# c #574639",
/* pixels */
"                                ",
"                                ",
"                                ",
"                                ",
"                                ",
"                                ",
"             ........           ",
"           ..XXXXXXXX..         ",
"           ..XooooooO..         ",
"           ..XooooooO..         ",
"           ..XooooooO..         ",
"           ..Xooooooo..         ",
"           ..XooooooO..  ...    ",
"           ..oooooooo.. .+..    ",
"           ..oooooooo.. .+..    ",
"          .  .oooooo.  .+@..    ",
"         .#.............+@..    ",
"         .#oo.OoXXXX.oo.@.      ",
"         .#oo.OooooX.oo..       ",
"         .#oo.OooooX.oo..       ",
"         .#...oooooo...         ",
"         .#...XX...o.           ",
"          .  .X.   ..           ",
"             ..                 ",
"             ..                 ",
"                                ",
"                                ",
"                                ",
"                                ",
"                                ",
"                                ",
"                                "
};
