/* XPM */
static char *_111533fc2574ffce0e04ddd82bd296bO9VsVGCew5mVSFbu[] = {
/* columns rows colors chars-per-pixel */
"32 32 8 1 ",
"  c None",
". c #222222",
"X c #C1C9CE",
"o c #CBD6DB",
"O c #D4E2E0",
"+ c gray96",
"@ c #DADADA",
"# c #574639",
/* pixels */
"                                ",
"                                ",
"                                ",
"                                ",
"                                ",
"                                ",
"             .........          ",
"            .XXXXXXXXX.         ",
"            .XXooooooO.         ",
"            .XXooooooO.         ",
"            .XXooooooO.         ",
"            .XXooooooo.         ",
"            .XXooooooO.   ..    ",
"            .ooooooooo.  .+.    ",
"            .ooooooooo.  .+.    ",
"           . ..oooooo. ..+@.    ",
"          .#.............+@.    ",
"          .#o..XXXooO.o..@.     ",
"          .#o..XooooO.o...      ",
"          .#o..XooooO.o...      ",
"          .#...oooooo..         ",
"          .#...o..XXX.          ",
"           . ...  ..X.          ",
"                    ..          ",
"                    ..          ",
"                                ",
"                                ",
"                                ",
"                                ",
"                                ",
"                                ",
"                                "
};
