/* XPM */
static char *_b4f8f708dfd444bd5d20e8d0be3875b3lrk5k6lvCfuqPKC[] = {
/* columns rows colors chars-per-pixel */
"32 32 19 1 ",
"  c #509B66",
". c #354048",
"X c #484562",
"o c #64747A",
"O c #7F9B92",
"+ c #6C3C4A",
"@ c #7D5643",
"# c #DFC50B",
"$ c #C5910B",
"% c #505558",
"& c #69B57F",
"* c #BB6749",
"= c #DEBC70",
"- c #F2F0C5",
"; c #296640",
": c #879289",
"> c #C0BDB1",
", c #DAD7C9",
"< c #9B6B53",
/* pixels */
"                                ",
"                                ",
"             ..XXX..            ",
"            .oOOOOOo.           ",
"           .oOOOOOOOo.          ",
"          +@@oO@oO@oO@+         ",
"          +@@#O@#O@#o@+         ",
"          .$@#o$#o$#@$.         ",
"          .@$#######$@.         ",
"          .#@%%%%%%%@#.         ",
"        &&+$@*=---=*@$+         ",
"        &&+#$=+---+=$#+         ",
"        &&.$@=.===.=@$.         ",
"        &&+#$@*@@@*@$#+         ",
"      ;;;;++$+@***@+$+@+        ",
"      ;;;+$@++:+++:++@$$+       ",
"        ;+@++>,$#$,>++$$+       ",
"        .@$++:,#$#,:+@@@.       ",
"        ++@@.:>$#$>+$##$+       ",
"        +$$+.+>>>>>+####+       ",
"        .@$$.$+@@@++####.       ",
"         .@$X+$$$$$+$##$.       ",
"          ..X:@@@@@:....        ",
"            XXX:>,>:X           ",
"           .@<<@..+@..          ",
"          .+<@@<.++.+..         ",
"         ...+@@+........        ",
"         ...+++.........        ",
"          .............         ",
"            .........           ",
"                                ",
"                                "
};
