/* XPM */
static char *front_r1721837326[] = {
/* columns rows colors chars-per-pixel */
"32 32 10 1 ",
"  c None",
". c #222222",
"X c #574639",
"o c #B02B2B",
"O c #FFF949",
"+ c #C1C9CE",
"@ c #CBD6DB",
"# c #DADADA",
"$ c #D4E2E0",
"% c gray96",
/* pixels */
"                                ",
"                                ",
"                                ",
"                                ",
"                                ",
"                                ",
"             .........          ",
"            .+++++++++.         ",
"            .+@@@@@@$$.         ",
"            .+@@@@@@$$.         ",
"            .+@@@@@@$$.         ",
"            .+......@@.         ",
"       ..   .+@....@$$.         ",
"       .%.  .@@@@.@@@@.         ",
"       .%.  .@@@@.@@@@.         ",
"       .#%.. .@@@.@@.. .        ",
"       .#%.......+.....X.       ",
"        .#..@.+O++O$..XX.       ",
"         ...@.+@OO@$..Xo.       ",
"         ...@.+@OO@$..XX.       ",
"            ..@O@@O@..XX.       ",
"             .@...++...X.       ",
"             ..   .+.. .        ",
"                   ...          ",
"                   ...          ",
"                                ",
"                                ",
"                                ",
"                                ",
"                                ",
"                                ",
"                                "
};
