/* XPM */
static char *left_r1721837369[] = {
/* columns rows colors chars-per-pixel */
"32 32 11 1 ",
"  c None",
". c #222222",
"X c #574639",
"o c #735F4B",
"O c #B02B2B",
"+ c #FFF949",
"@ c #C1C9CE",
"# c #CBD6DB",
"$ c #DADADA",
"% c #D4E2E0",
"& c gray96",
/* pixels */
"                                ",
"                                ",
"                                ",
"                                ",
"                                ",
"                                ",
"             .........          ",
"            .@@@@@@@@@.         ",
"            .@@#######%..       ",
"            .@@#######%..       ",
"            .@@#######%..       ",
"            .........##..       ",
"            .@@...####%..       ",
"            .###.######..       ",
"            .###.######..       ",
" ......     .@@#.####..         ",
" .&&&&&....  ...@........       ",
"  .$$$$&&&&....@#.XXXOXXX.      ",
"   ....$$$$&...@+.XXOOOXX.      ",
"   ....$$$$&...@#.XXXOXXX.      ",
"       ....$...@+.XXXOoXX.      ",
"           ....@@.XXXOXXX.      ",
"               ..#..XXX..       ",
"                 ......         ",
"                 ......         ",
"                                ",
"                                ",
"                                ",
"                                ",
"                                ",
"                                ",
"                                "
};
