/* XPM */
static char *right_l1721837369[] = {
/* columns rows colors chars-per-pixel */
"32 32 9 1 ",
"  c None",
". c #222222",
"X c #574639",
"o c #B2B2B2",
"O c #C1C9CE",
"+ c #CBD6DB",
"@ c #DADADA",
"# c #D4E2E0",
"$ c gray96",
/* pixels */
"                                ",
"                                ",
"                                ",
"                                ",
"                                ",
"                                ",
"             .........          ",
"            .OOOOOOOOO.         ",
"           .O++++++++#.         ",
"           .O++++++++#.         ",
"           .O++++++++#.         ",
"           .O++........         ",
"           .+++++....#.         ",
"           .+++++....#.         ",
"           .++++++.+++.         ",
"            ..o+++.++......     ",
"             ........$$$$$.     ",
"            .....$$$$@@@@..     ",
"           .+..$$@@@@....X.     ",
"           .+..$$@@@@....X.     ",
"           .+..@@......XXX.     ",
"            .....+OOO.XXX.      ",
"               .++.......       ",
"               .++.......       ",
"                ..              ",
"                                ",
"                                ",
"                                ",
"                                ",
"                                ",
"                                ",
"                                "
};
