/* XPM */
static char *right_r1721837369[] = {
/* columns rows colors chars-per-pixel */
"32 32 8 1 ",
"  c None",
". c #222222",
"X c #574639",
"o c #C1C9CE",
"O c #CBD6DB",
"+ c #DADADA",
"@ c #D4E2E0",
"# c gray96",
/* pixels */
"                                ",
"                                ",
"                                ",
"                                ",
"                                ",
"                                ",
"             .........          ",
"            .ooooooooo.         ",
"           .oOOOOOOOO@.         ",
"           .oOOOOOOOO@.         ",
"           .oOOOOOOOO@.         ",
"           .oO.........         ",
"           .OOOOO....@.         ",
"           .OOOOOO.OOO.   ......",
"           .OOOOOO.OOO.   ......",
"            ..OOOO.OOo....#####.",
"           .X.........####+++.. ",
"           ...oo.O.###++++...   ",
"           ...oo.O.+++....      ",
"           ...oo.O.+++....      ",
"           .X.ooO.....          ",
"            ..OO..ooo.          ",
"            .O....o..           ",
"            ..    ...           ",
"            ..    ...           ",
"                                ",
"                                ",
"                                ",
"                                ",
"                                ",
"                                ",
"                                "
};
