/* XPM */
static char *right1721837369[] = {
/* columns rows colors chars-per-pixel */
"32 32 7 1 ",
"  c None",
". c #222222",
"X c #CAD1D6",
"o c #DADADA",
"O c #D3DCE1",
"+ c #DAE7E5",
"@ c gray96",
/* pixels */
"                                ",
"                                ",
"                                ",
"                                ",
"                                ",
"                                ",
"             .........          ",
"            .XXXXXXXXX.         ",
"           .XOOOOOOO++.         ",
"           .XOOOOOOO++.         ",
"           .XOOOOOOO++.         ",
"           .XO.........         ",
"           .OOOOO...++.         ",
"           .OOOOO...++.         ",
"           .OOOOOO.OOO.         ",
"            ..OOOO.OXX. ....... ",
"             .....X.....@@@@@.. ",
"             .XX....@@@@oooo.   ",
"             ...O.@@oooo....    ",
"             ...O.@@oooo....    ",
"             ...O.oo....        ",
"             .OO.......         ",
"             .OO..X...          ",
"             .OO..X...          ",
"             ... ..             ",
"                                ",
"                                ",
"                                ",
"                                ",
"                                ",
"                                ",
"                                "
};
