/* XPM */
static char *_1112f5f2cc240c6b5e8b0e14705d0a6FGZ3Uik2DK3yeAxG[] = {
/* columns rows colors chars-per-pixel */
"32 32 17 1 ",
"  c #509B66",
". c #354048",
"X c #484562",
"o c #7F9B92",
"O c #AEC3BE",
"+ c #64747A",
"@ c #505558",
"# c #6C3C4A",
"$ c #BB6749",
"% c #DEBC70",
"& c #69B57F",
"* c #F2F0C5",
"= c #296640",
"- c #879289",
"; c #C0BDB1",
": c #DAD7C9",
"> c #DA1625",
/* pixels */
"                                ",
"                                ",
"              .XXXXX.           ",
"             .ooOoOoO.          ",
"            .o+OoOoO+o.         ",
"            X+ooOoOoO+X         ",
"            .o+OoOoO+o.         ",
"            @+o@XXX@o+@         ",
"            @o@#$$$#@o@         ",
"           X++X%%%%%X++X        ",
"        &&&.+X#$%%%$#X+.        ",
"        &&&.oX%#%%%#%Xo.        ",
"        &&&.+@%.***.%@+.        ",
"        &&&Xo@$%***%$@oX        ",
"      ====X@XoX$%%%$XoX@X       ",
"      ===X+o@XX-###-XX@oOX      ",
"        =.@o+X;::>::;XXOoX      ",
"        =XX@@X-:>>>:.@@@XX      ",
"         X@++.-;:>:;.+oo+X      ",
"         .@++.@;;>;;.ooo+.      ",
"          .+@.+@@@@@.+o+.       ",
"           ..X@+++++@...        ",
"             X-@@@@@-X          ",
"             XXX;:>-@X          ",
"            .+oo+..X@..         ",
"           .Xo++o.XX.X..        ",
"          ...X++X........       ",
"          ...XXX.........       ",
"           .............        ",
"             .........          ",
"                                ",
"                                "
};
