/* XPM */
static char *_839c9c4f3474794df3eacd2c86e373enW84pZbH0lTk386a[] = {
/* columns rows colors chars-per-pixel */
"32 32 7 1 ",
"  c #509B66",
". c #242A3D",
"X c #677598",
"o c #414B66",
"O c #8F9AB0",
"+ c #2E543F",
"@ c #296640",
/* pixels */
"                                ",
"                                ",
"             ........           ",
"             ........           ",
"           ..XXXXXXoo....       ",
"           ..XXXXXXoo....       ",
"         ..XXOOOOOOXXXXoo..     ",
"         ..XXOOOOOOXXXXoo..     ",
"         ..OOOOOOOOOOXXXXoo..   ",
"         ..OOOOOOOOOOXXXXoo..   ",
"       ..OOXXXXOOOOOOXXoooo..   ",
"       ..OOXXXXOOOOOOXXoooo..   ",
"     ..ooOOOOXXXXOOOOXXOOOOXX.. ",
"     ..ooOOOOXXXXOOOOXXOOOOXX.. ",
"   ..OOXXooXXOOOOOOXXooOOXXoo.. ",
"   ..OOXXooXXOOOOOOXXooOOXXoo.. ",
" ..OOOOOOXXXXOOOOXXoooooooooo.. ",
" ..OOOOOOXXXXOOOOXXoooooooooo.. ",
" ..OOOOXXXXOOOOOOOOXXooooXX.... ",
" ..OOOOXXXXOOOOOOOOXXooooXX.... ",
" ..XXXXXXooOOOOOOOOOOooXXXX.... ",
" ..XXXXXXooOOOOOOOOOOooXXXX.... ",
" ++..  oo  XXOOOOOOXXoo  ..@@.. ",
" ++..  oo  XXOOOOOOXXoo  ..@@.. ",
"   ++oooo@@ooXX  ooXXoo@@@@..++ ",
"   ++oooo@@ooXX  ooXXoo@@@@..++ ",
"       ++++oo    XXoooo..@@++++ ",
"       ++++oo    XXoooo..@@++++ ",
"         ++++++@@  oooo++++++   ",
"         ++++++@@  oooo++++++   ",
"             ++++++++++++++     ",
"             ++++++++++++++     "
};
