/* XPM */
static char *_3987367518d4c03b95eabff33fcd9e86yI1onNFkOWFMuPz[] = {
/* columns rows colors chars-per-pixel */
"32 32 3 1 ",
"  c #509B66",
". c #69B57F",
"X c #296640",
/* pixels */
"                                ",
"                                ",
"                                ",
"                                ",
"                                ",
"                                ",
"                                ",
"                                ",
"                                ",
"                                ",
"        ....                    ",
"        ....                    ",
"        ......    ....          ",
"        ......    ....          ",
"      XXXX....  ......          ",
"      XXXX....  ......          ",
"        XXXX..  ....XXXX        ",
"        XXXX..  ....XXXX        ",
"                ..XXXX          ",
"                ..XXXX          ",
"                                ",
"                                ",
"                                ",
"                                ",
"                                ",
"                                ",
"                                ",
"                                ",
"                                ",
"                                ",
"                                ",
"                                "
};
