/* XPM */
static char *c2af2ce21aa14ee492c8bb9bd0fc9d7bamHM8xobZ1tPw5AI[] = {
/* columns rows colors chars-per-pixel */
"32 32 160 2 ",
"   c #061C1D",
".  c #08181B",
"X  c #07201C",
"o  c #041C24",
"O  c #081A22",
"+  c #111120",
"@  c #0C1631",
"#  c #191C32",
"$  c #171D3C",
"%  c #1B1C39",
"&  c #082725",
"*  c #002B22",
"=  c #0E2826",
"-  c #0E2528",
";  c #0B2A29",
":  c #112224",
">  c #18262C",
",  c #033427",
"<  c #1B2B3E",
"1  c #093035",
"2  c #1C3334",
"3  c #16313E",
"4  c #18323D",
"5  c #173A3B",
"6  c #252232",
"7  c #242E35",
"8  c #26273A",
"9  c #26283A",
"0  c #282C3F",
"q  c #322E3D",
"w  c #243036",
"e  c #243439",
"r  c #29343D",
"t  c #1F2542",
"y  c #1F3A49",
"u  c #222443",
"i  c #262C45",
"p  c #242C4A",
"a  c #2B2D4C",
"s  c #322E4B",
"d  c #2D324B",
"f  c #2B3E4C",
"g  c #262E51",
"h  c #292F51",
"j  c #312D58",
"k  c #243151",
"l  c #2C3253",
"z  c #2D375B",
"x  c #2D3859",
"c  c #313457",
"v  c #343B52",
"b  c #343C5B",
"n  c #353E62",
"m  c #383F61",
"M  c #284B4C",
"N  c #3F4443",
"B  c #30514E",
"V  c #334850",
"C  c #36465C",
"Z  c #3C465E",
"A  c #3F5158",
"S  c #2F6C5D",
"D  c #32665B",
"F  c #3B675C",
"G  c #2A705F",
"H  c #374262",
"J  c #3B4566",
"K  c #3E4A67",
"L  c #3C4669",
"P  c #3E4C6C",
"I  c #3C516C",
"U  c #364C76",
"Y  c #266767",
"T  c #226D60",
"R  c #3E6263",
"E  c #36666A",
"W  c #356A68",
"Q  c #377177",
"!  c #42415C",
"~  c #444C66",
"^  c #4D4C60",
"/  c #414769",
"(  c #424C6D",
")  c #484D68",
"_  c #434365",
"`  c #4B5469",
"'  c #434D71",
"]  c #4A4870",
"[  c #445272",
"{  c #495473",
"}  c #4D5B76",
"|  c #4B5B7A",
" . c #505574",
".. c #535876",
"X. c #505F7E",
"o. c #526570",
"O. c #54627F",
"+. c #3E846C",
"@. c #45816B",
"#. c #4E9C6B",
"$. c #509B66",
"%. c #459576",
"&. c #4D9379",
"*. c #54A070",
"=. c #57A378",
"-. c #556283",
";. c #5A6482",
":. c #556885",
">. c #5A6A87",
",. c #5C6A8B",
"<. c #5B748A",
"1. c #626D8C",
"2. c #726D8A",
"3. c #63738E",
"4. c #6C738C",
"5. c #656F91",
"6. c #657493",
"7. c #697493",
"8. c #6B7A93",
"9. c #64749B",
"0. c #6B7B99",
"q. c #518F86",
"w. c #74829E",
"e. c #7F869E",
"r. c #7E899E",
"t. c #68B797",
"y. c #7C87A5",
"u. c #7E89A4",
"i. c #7A8AAA",
"p. c #828EAC",
"a. c #8993A6",
"s. c #8491AD",
"d. c #929BA8",
"f. c #8493B0",
"g. c #8B9BB4",
"h. c #8799BC",
"j. c #8E9DB9",
"k. c #939FB6",
"l. c #939EBB",
"z. c #999EBC",
"x. c #8DA4BE",
"c. c #93A2B5",
"v. c #9BA3B7",
"b. c #92A5BE",
"n. c #96A5BE",
"m. c #92A1BB",
"M. c #99A4BC",
"N. c #99A8BF",
"B. c #ABAABE",
"V. c #8BA6C1",
"C. c #95A3C0",
"Z. c #98A6C2",
"A. c #A6B5CA",
"S. c #A8B4C9",
"D. c #A9B8CF",
"F. c #AEBAD3",
"G. c #B5C1D6",
"H. c #B8C6DF",
"J. c #B5C4DA",
"K. c #C5D6EB",
/* pixels */
"$.$.$.$.$.$.$.$.$.$.$.$.$.$.$.$.$.$.$.$.$.$.$.$.$.$.$.$.$.$.$.$.",
"$.$.$.$.$.$.$.$.$.$.$.$.$.$.$.$.$.$.$.$.$.$.$.$.$.$.$.$.$.$.$.$.",
"$.$.$.$.$.$.$.$.$.$.$.$.$.@.+.+.+.+.+.+.@.$.$.$.$.$.$.$.$.$.$.$.",
"$.$.$.$.$.$.$.$.$.$.$.  k.V.x.x.x.x.x.x.z.= $.$.$.$.$.$.$.$.$.$.",
"$.$.$.$.$.$.$.$.t.A a.b.m.m.m.m.m.m.m.m.x.v.%.$.$.$.$.$.$.$.$.$.",
"$.$.$.$.$.$.$.N B.x.x.l.m.s.w.0.g.m.m.m.m.>.V $.$.$.$.$.$.$.$.$.",
"$.$.$.$.$.$.$.2 m.c.k.b.} b.m.m.m.m.m.m.l.x.e.$.$.$.$.$.$.$.$.$.",
"$.$.$.$.$.$.$.7 6.b.1.g.j.m.m.m.m.g.u.n.p.n.s., $.$.$.$.$.$.$.$.",
"$.$.$.$.$.$.$.7 6.p.P H.D.N.m.m.m.k.M.;.[ ( ' ; $.$.$.$.$.$.$.$.",
"$.$.$.$.$.$.$.7 4.6.P 6.6.0.J.k.m.S.' / z ( ' & $.$.$.$.$.$.$.$.",
"$.$.$.$.$.$.$.v 5.6.i.6.6.6.6.s.G.{ ' i z J H k 8 $.$.$.$.$.$.$.",
"$.$.$.$.$.*.4.,.6.6.,.6.6.6.6.6.6.' ' p ( ( 6.l P e $.$.$.$.$.$.",
"$.$.$.$.$.=.} { ( 6.,.| 6.6.6.6.6.( ' i ' ( ( k ( 0 $.$.$.$.$.$.",
"$.$.$.$.$.X ( L [ 6.>.6.| [ ,.6.7.( z b ( ' P ( a a * $.$.$.$.$.",
"$.$.$.$.$.^ ' z l P 1.6.6.[ 1.J ( 1.' u c ] ' ) a l q $.$.$.$.$.",
"$.$.$.$.$.! ( b ( b m.m.m.m.-.1.-.;.' u ( P n  .u s a F $.$.$.$.",
"$.$.$.$.> a p y.C.;.0.K.m.l.Z.{ ' ( ' u ( P 5.m.l.t g : $.$.$.$.",
"$.$.$.$.# k s.j.m.w.6.8.F.7.n.p.' ( ' u c ( f.x.b...j 7 $.$.$.$.",
"$.$.$.$.s ' j.m.m.w.| >.>.8.A.k.k ( ( % a g :.f.m.u.@ s $.$.$.$.",
"$.$.$.$.) ] P j.m.6.6.6.6.6.3.K ( ' $ % a ( 6.6.j.y.<.i $.$.$.$.",
"$.$.$.o Y I ( ( 1.6.6.( 6.6.6.( ( _ a ( 8.L 6.6.6.i.7.< $.$.$.$.",
"$.$.$.$.$.$./ h ' ,.P K 6.6.6.P ( l p l.m.j.X.3.6.| ( ~ $.$.$.$.",
"$.$.$.$.$.$.o   ` ' J l 6.P 6.H ( b { j.m.6.3.k ( k d d $.$.$.$.",
"$.$.$.$.$.$.$.$.S 5 2 6 ~ 6.:.' m } 3.P P 6.3.1.H l ;.m.l.u.$.$.",
"$.$.$.$.$.$.$.$.D O v.M.+ 3. .J k.m.m.O.| 6.6.C R o.l.m.l.l.9 $.",
"$.$.$.$.$.$.$.Q d.c.m.c.r.S - m.l.c.m.w.[ | v $.$.f w.w.0.( B $.",
"$.$.$.$.$.$.$.$.4 1.z.p.Z T 1 h.c.c.s.U f G $.$.$.$.&.3 2 q.$.$.",
"$.$.$.$.$.$.$.$.$.y 2.) D $.$.w 9.9.4.. $.$.$.$.$.$.$.$.$.$.$.$.",
"$.$.$.$.$.$.$.$.$.$.E W #.$.$.$.d r M $.$.$.$.$.$.$.$.$.$.$.$.$.",
"$.$.$.$.$.$.$.$.$.$.$.$.$.$.$.$.$.$.$.$.$.$.$.$.$.$.$.$.$.$.$.$.",
"$.$.$.$.$.$.$.$.$.$.$.$.$.$.$.$.$.$.$.$.$.$.$.$.$.$.$.$.$.$.$.$.",
"$.$.$.$.$.$.$.$.$.$.$.#.#.#.$.$.$.$.$.$.$.#.#.$.$.$.$.$.$.$.$.$."
};
