/* XPM */
static char *ab99290274f54e0f8017727a26f6d5883OI4JZx1rONzVqip[] = {
/* columns rows colors chars-per-pixel */
"32 32 9 1 ",
"  c #509B66",
". c #2F2F2E",
"X c #B97F56",
"o c #A5BECE",
"O c #99643E",
"+ c #296640",
"@ c #7C4E2E",
"# c #757A8B",
"$ c #8B5936",
/* pixels */
"                                ",
"                                ",
"                                ",
"                                ",
"                                ",
"                                ",
"                                ",
"                                ",
"                                ",
"         ...............        ",
"        .XXXXXXXXXXXXXXX.       ",
"        .XXXXXXXXXXXXXXX.       ",
"        .XXXXXXXXXXXXXXX.       ",
"        .ooOOOOoooOOOOoo.       ",
"      ++.@@@@@@o#o@@@@@@.       ",
"      ++.OOOOOOOoOOOOOOO.       ",
"        .OOOOOOOOOOOOOOO.       ",
"        .$$$$$$$$$$$$$$$.       ",
"        .OOOOOOOOOOOOOOO.       ",
"        .OOOOOOOOOOOOOOO.       ",
"        .o@@@@@@@@@@@@@o.       ",
"         ...............        ",
"                                ",
"                                ",
"                                ",
"                                ",
"                                ",
"                                ",
"                                ",
"                                ",
"                                ",
"                                "
};
