/* XPM */
static char *_891cbe051cb48acd8561e5d13387f76l8lww0cDgbfBeWyW[] = {
/* columns rows colors chars-per-pixel */
"32 32 9 1 ",
"  c #509B66",
". c #2F2F2E",
"X c #B97F56",
"o c #A5BECE",
"O c #99643E",
"+ c #7C4E2E",
"@ c #757A8B",
"# c #296640",
"$ c #8B5936",
/* pixels */
"                                ",
"                                ",
"                                ",
"                                ",
"                                ",
"                                ",
"                                ",
"                                ",
"         ...............        ",
"        .XXXXXXXXXXXXXXX.       ",
"        .ooOOOOoooOOOOoo.       ",
"        .+.....o@o.....+.       ",
"        .+......o......+.       ",
"        .+.............+.       ",
"      ##.+++++++++++++++.       ",
"      ##.OOOOOOOOOOOOOOO.       ",
"        .OOOOOOOOOOOOOOO.       ",
"        .$$$$$$$$$$$$$$$.       ",
"        .OOOOOOOOOOOOOOO.       ",
"        .OOOOOOOOOOOOOOO.       ",
"        .o+++++++++++++o.       ",
"         ...............        ",
"                                ",
"                                ",
"                                ",
"                                ",
"                                ",
"                                ",
"                                ",
"                                ",
"                                ",
"                                "
};
