/* XPM */
static char *_d43846b13ca446bc0b1f186ff2dd4eddgHsRLtL16DQMANg[] = {
/* columns rows colors chars-per-pixel */
"32 32 155 2 ",
"   c #2F2F2E",
".  c #323832",
"X  c #550E04",
"o  c #46150C",
"O  c #4B150C",
"+  c #401A08",
"@  c #4D1202",
"#  c #521102",
"$  c #471712",
"%  c #471E16",
"&  c #582E0C",
"*  c #45221B",
"=  c #742116",
"-  c #433B29",
";  c #413E33",
":  c #513D30",
">  c #652E2E",
",  c #4B5239",
"<  c #5C5C36",
"1  c #7C4E2E",
"2  c #63453A",
"3  c #7D5736",
"4  c #79483B",
"5  c #3E3476",
"6  c #6D1D45",
"7  c #6D3369",
"8  c #296640",
"9  c #5B4B40",
"0  c #6E506A",
"q  c #8D2A3C",
"w  c #BE3739",
"e  c #D83C26",
"r  c #814A18",
"t  c #8F4227",
"y  c #834E26",
"u  c #96472F",
"i  c #89552D",
"p  c #854235",
"a  c #874439",
"s  c #8C4637",
"d  c #9B4438",
"f  c #945132",
"g  c #AE4F25",
"h  c #B6492D",
"j  c #B34A27",
"k  c #A24233",
"l  c #A64A36",
"z  c #AE4C3B",
"x  c #A9483A",
"c  c #B54735",
"v  c #BA4635",
"b  c #B54B34",
"n  c #B84931",
"m  c #B7473C",
"M  c #BC453D",
"N  c #B5493A",
"B  c #AD5B3C",
"V  c #BE5934",
"C  c #99643E",
"Z  c #BD6C2C",
"A  c #BE6C22",
"S  c #AD673D",
"D  c #C26E1C",
"F  c #C1433A",
"G  c #C44B38",
"H  c #CB5D35",
"J  c #C85A37",
"K  c #D45D39",
"L  c #C4692A",
"P  c #CE6337",
"I  c #D76834",
"U  c #D76432",
"Y  c #DB753D",
"T  c #E86F3F",
"R  c #E26F3C",
"E  c #ED7E3D",
"W  c #E3703D",
"Q  c #872B47",
"!  c #882A40",
"~  c #8C2541",
"^  c #A63849",
"/  c #9F5350",
"(  c #A34040",
")  c #A54B43",
"_  c #AC4C44",
"`  c #B94642",
"'  c #B24A44",
"]  c #BA4840",
"[  c #A2514B",
"{  c #AA5C48",
"}  c #B5716A",
"|  c #DA424C",
" . c #D96C4B",
".. c #DF7243",
"X. c #C77744",
"o. c #E17943",
"O. c #E1596E",
"+. c #C66C6C",
"@. c #509B66",
"#. c #E6AE1F",
"$. c #CD922C",
"%. c #CB8C3C",
"&. c #D28D3A",
"*. c #CB9531",
"=. c #E98E2D",
"-. c #E29125",
";. c #EC8C38",
":. c #F58E35",
">. c #F98C34",
",. c #F68538",
"<. c #F68A3C",
"1. c #FE883C",
"2. c #E49236",
"3. c #F09134",
"4. c #F19038",
"5. c #F5A42E",
"6. c #F5A935",
"7. c #FFE13B",
"8. c #B48141",
"9. c #CC894E",
"0. c #EB8C42",
"q. c #F28545",
"w. c #F38C44",
"e. c #F3824B",
"r. c #F68B4A",
"t. c #F98848",
"y. c #EC9046",
"u. c #F48454",
"i. c #FD8755",
"p. c #F9B54B",
"a. c #F1BD50",
"s. c #F6C24D",
"d. c #FCC946",
"f. c #FFDC45",
"g. c #FFDA48",
"h. c #F7C950",
"j. c #FFD551",
"k. c #FFE148",
"l. c #FCE45D",
"z. c #3634A5",
"x. c #472D84",
"c. c #4C2C9C",
"v. c #2A7BB6",
"b. c #757A8B",
"n. c #FE7495",
"m. c #2F8A98",
"M. c #258893",
"N. c #0A99AC",
"B. c #1491A1",
"V. c #1792B0",
"C. c #238EBE",
"Z. c #278AA4",
"A. c #AE8C94",
"S. c #A5BECE",
"D. c #FFFCE3",
/* pixels */
"@.@.@.@.@.@.@.@.@.@.@.@.@.@.@.@.@.@.@.@.@.@.@.@.@.@.@.@.@.@.@.@.",
"@.@.@.@.@.@.@.@.@.@.@.@.@.@.@.      @.@.@.@.@.@.@.@.@.@.@.@.@.@.",
"@.@.@.@.@.@.@.@.@.            S.b.S.            @.@.@.@.@.@.@.@.",
"@.@.@.@.@.@.@.@.  C C C C C C S.S.S.C C C C C C   @.@.@.@.@.@.@.",
"@.@.@.@.@.@.@.@.  1 1 1 1 1 1 b.S.b.1 1 1 1 1 1   @.@.@.@.@.@.@.",
"@.@.@.@.@.@.@.@.  1 1 1 1 1 1 1 b.1 1 1 1 1 1 1   @.@.@.@.@.@.@.",
"@.@.@.@.@.@.@.@.  1 1 1 1 1 1 1 1 1 1 1 1 1 1 1   @.@.@.@.@.@.@.",
"@.@.@.@.@.@.@.@.  1 1 1 1 1 1 1 1 1 1 1 1 1 1 1   @.@.@.@.@.@.@.",
"@.@.@.@.@.@.@.@.  1 < S q.q.q.q.q.q.q.e.q.& < 1   @.@.@.@.@.@.@.",
"@.@.@.@.@.@.@.3 B W R J H K P K j M v M c ..Y T y 3 @.@.@.@.@.@.",
"@.@.@.@.@.@.@.p.J M n ^ ( d u k q Q q q ! ` v v L h.@.@.@.@.@.@.",
"@.@.@.@.@.@.@.d.9.f s 6 ^ w w e n.n.| O.~ f i t s.a.@.@.@.@.@.@.",
"@.@.@.@.@.@.@.0.I $.X.{ 8.A.A.2.2.-.=.%.8.%.&.I v _ @.@.@.@.@.@.",
"@.@.@.@.@.@.@.r ,.E s.*.L +.} L A Z Z D Z E M m N > @.@.@.@.@.@.",
"@.@.@.@.@.@.8 8 :.:.#.k.V l.y.m.x.u.>. .o.<.] F c @.@.@.@.@.@.@.",
"@.@.@.@.@.@.8 8 P <.5.7.7.;.M.B.V.5 0.6.6.3.c v _ @.@.@.@.@.@.@.",
"@.@.@.@.@.@.@.@.2 r.4.p.f.;.Z.N.C.c.V =.>.h M _ . @.@.@.@.@.@.@.",
"@.@.@.@.@.@.@.@.  u E :.:.t.0 v.z.7 U :.E h d :   @.@.@.@.@.@.@.",
"@.@.@.@.@.@.@.@.  C , z e.w.1.g M M ` b = O C C   @.@.@.@.@.@.@.",
"@.@.@.@.@.@.@.@.  C C ; s x x ) l l k $ % C C C   @.@.@.@.@.@.@.",
"@.@.@.@.@.@.@.@.  S.1 1 1 - * # O @ * 1 1 1 1 S.  @.@.@.@.@.@.@.",
"@.@.@.@.@.@.@.@.@.            # o o             @.@.@.@.@.@.@.@.",
"@.@.@.@.@.@.@.@.@.@.@.@.@.@.@.z # o @.@.@.@.@.@.@.@.@.@.@.@.@.@.",
"@.@.@.@.@.@.@.@.@.@.@.@.@.@.@.M X + @.@.@.@.@.@.@.@.@.@.@.@.@.@.",
"@.@.@.@.@.@.@.@.@.@.@.@., g i.N M X M p @.@.@.@.@.@.@.@.@.@.@.@.",
"@.@.@.@.@.@.@.@.@._ H <.j.g.h v c z G  .F N ' @.@.@.@.@.@.@.@.@.",
"@.@.@.@.@.@.@.@.@._ J <.:.D.D.=.g.j.3.1.H N ' @.@.@.@.@.@.@.@.@.",
"@.@.@.@.@.@.@.@.@.@.@.[ ) u.r.t.w.t.u.' [ / @.@.@.@.@.@.@.@.@.@.",
"@.@.@.@.@.@.@.@.@.@.@.@.@.4 s p p a a 9 @.@.@.@.@.@.@.@.@.@.@.@.",
"@.@.@.@.@.@.@.@.@.@.@.@.@.@.@.@.@.@.@.@.@.@.@.@.@.@.@.@.@.@.@.@.",
"@.@.@.@.@.@.@.@.@.@.@.@.@.@.@.@.@.@.@.@.@.@.@.@.@.@.@.@.@.@.@.@.",
"@.@.@.@.@.@.@.@.@.@.@.@.@.@.@.@.@.@.@.@.@.@.@.@.@.@.@.@.@.@.@.@."
};
