/* XPM */
static char *feeb031bd46b4937ba35482e2b4b3d01Z0xgAK1kp2roo5rR[] = {
/* columns rows colors chars-per-pixel */
"32 32 12 1 ",
"  c #509B66",
". c #202020",
"X c #F6B252",
"o c black",
"O c #69B57F",
"+ c #313031",
"@ c #EE8900",
"# c #F69518",
"$ c #296640",
"% c #FFEEDE",
"& c #FFDAA4",
"* c #000800",
/* pixels */
"                                ",
"                                ",
"                                ",
"                                ",
"                                ",
"                                ",
"                                ",
"                                ",
"                                ",
"                    .Xo         ",
"        OOOO       +X@o         ",
"        OOOO      +Xoo#o        ",
"        OOOOOO   +X@oOo         ",
"        OOOOOO  +Xoo#o          ",
"      $$$$OOOO .XoOOoO          ",
"      $$$$+%&X*XoOOOOO          ",
"        $+XoooXoOOOO$$$$        ",
"        $%o$OO*XOOOO$$$$        ",
"         &o   *&OO$$$$          ",
"         Xo   +XOO$$$$          ",
"         *X**+Xo                ",
"          oX&Xo                 ",
"                                ",
"                                ",
"                                ",
"                                ",
"                                ",
"                                ",
"                                ",
"                                ",
"                                ",
"                                "
};
