/* XPM */
static char *_28929c628334043856034d3c79820e5KdmrCw3wrizeaiYD[] = {
/* columns rows colors chars-per-pixel */
"32 32 12 1 ",
"  c #509B66",
". c #354048",
"X c #484562",
"o c #AEC3BE",
"O c #7F9B92",
"+ c #64747A",
"@ c #505558",
"# c #69B57F",
"$ c #296640",
"% c #C0BDB1",
"& c #DAD7C9",
"* c #879289",
/* pixels */
"                                ",
"                                ",
"            .XXXXX.             ",
"           .oOoOoOo.            ",
"          .O+oOoOo+O.           ",
"          X+oOoOoOo+X           ",
"          .O+oOoOo+O.           ",
"          @@O+O+O+O@@           ",
"          @++O+O+O++@           ",
"         X@@++O+O++@@X          ",
"        #.@+@O+O+O@+@.          ",
"        #.+@++O+O++@+.          ",
"        #.@+@O+O+O@+@.          ",
"        #X+@++O+O++@+X          ",
"      $$X@X+@O+O+O@+X@X         ",
"      $XO+XXX@@@@@XX@OoX        ",
"       .@OXX%&&&&&%XXoOX        ",
"       XX@@X*&&&&&*@@@XX        ",
"       X++@.*%&&&%@+OOOX        ",
"       .@++.@%%%%%XOOO+.        ",
"        .@@.+@@@@@X+OO.         ",
"         ..X@+++++@...          ",
"           X*@@@@@*X            ",
"           X*%&&%**X            ",
"          ..XX+&%**X.           ",
"         ..X++XXXXX@..          ",
"        ...@@X.X.X@....         ",
"        ....XXX........         ",
"         .............          ",
"           .........            ",
"                                ",
"                                "
};
