/* XPM */
static char *_738c5b6f53647f3d2e3903944ced897xp0vDzXuUE0HvhJU[] = {
/* columns rows colors chars-per-pixel */
"32 32 17 1 ",
"  c #509B66",
". c #354048",
"X c #484562",
"o c #7F9B92",
"O c #AEC3BE",
"+ c #64747A",
"@ c #505558",
"# c #DEBC70",
"$ c #BB6749",
"% c #69B57F",
"& c #6C3C4A",
"* c #F2F0C5",
"= c #296640",
"- c #DA1625",
"; c #DAD7C9",
": c #C0BDB1",
"> c #879289",
/* pixels */
"                                ",
"                                ",
"                                ",
"             .XXX..             ",
"            .oOoOoO.            ",
"           .+OoOoO+o.           ",
"           .o+o+o+o+X           ",
"           X+o+o+o+oX           ",
"           XXXX+o+o@X           ",
"           .##$X+o@+X           ",
"        %%%.#$&Xo@+@X           ",
"        %%%&###@+o@+.           ",
"        %%&$#&#@o@+@.%          ",
"        %%&**.*@++@.X%          ",
"      ====.***@+oXXX%%          ",
"      ====%.##XoX@X.%%          ",
"        ====.&XX@OoO.===        ",
"        ====%-;;@oOoO.==        ",
"          ...--;:.oO@.          ",
"         .@+&-;;>XX@+o.         ",
"         .+@&-::>@.oooX         ",
"          ...@@@@+.+o+.         ",
"            .++++@..XX          ",
"            .@@@@>.             ",
"            .-;;>X.             ",
"          .X-;;:X.X..           ",
"         ..@+@:X.X@X..          ",
"        ...X++@...X@...         ",
"        ...............         ",
"         .............          ",
"           .........            ",
"                                "
};
