/* XPM */
static char *_0e204d0f48b455abd0366a16b256772B8SuBxQJPtxdCXwD[] = {
/* columns rows colors chars-per-pixel */
"32 32 17 1 ",
"  c #509B66",
". c #354048",
"X c #484562",
"o c #AEC3BE",
"O c #7F9B92",
"+ c #64747A",
"@ c #505558",
"# c #BB6749",
"$ c #DEBC70",
"% c #69B57F",
"& c #6C3C4A",
"* c #F2F0C5",
"= c #296640",
"- c #DA1625",
"; c #879289",
": c #C0BDB1",
"> c #DAD7C9",
/* pixels */
"                                ",
"                                ",
"                                ",
"            ..XXX.              ",
"           .oOoOoO.             ",
"          .O+oOoOo+.            ",
"          X+O+O+O+O.            ",
"          XO+O+O+O+X            ",
"          X@O+O+XXXX            ",
"          X+@O+X#$$.            ",
"        %%X@+@OX&#$.            ",
"        %%.+@O+@$$$&            ",
"        %%.@+@O@$&$#&%          ",
"        %%X.@++@*.**&%          ",
"      ====%XXXO+@***.%          ",
"      ====%.X@XOX$$.%%          ",
"        ===.XOoXX&.%====        ",
"        ===.XoOXX-%%====        ",
"          .@.OoOXX.===          ",
"          .@.@Oo@O+.==          ",
"          .X..@@OOO.            ",
"           ..XX@+O+.            ",
"            .X;.XX.             ",
"           .;;:>:-.             ",
"           X;:>>-:.             ",
"          .@X:>-:X@X.           ",
"         .@+@X>:.XX@..          ",
"        ..X@++X...X....         ",
"        ...............         ",
"         .............          ",
"           .........            ",
"                                "
};
