/* XPM */
static char *_cda6846d45c4cbea92e861f970c96dbaRT9m8ruzYnWPRnI[] = {
/* columns rows colors chars-per-pixel */
"32 32 158 2 ",
"   c #550E04",
".  c #46150C",
"X  c #4B150C",
"o  c #401A08",
"O  c #4D1202",
"+  c #521102",
"@  c #471712",
"#  c #471E16",
"$  c #582E0C",
"%  c #45221B",
"&  c #742116",
"*  c #433B29",
"=  c #413E33",
"-  c #513D30",
";  c #652E2E",
":  c #4B5239",
">  c #5C5C36",
",  c #63453A",
"<  c #7D5736",
"1  c #79483B",
"2  c #3E3476",
"3  c #6D1D45",
"4  c #6D3369",
"5  c #296640",
"6  c #5B4B40",
"7  c #6E506A",
"8  c #8D2A3C",
"9  c #BE3637",
"0  c #BD383A",
"q  c #D83C26",
"w  c #814A18",
"e  c #8F4227",
"r  c #834E26",
"t  c #96472F",
"y  c #89552D",
"u  c #854235",
"i  c #874439",
"p  c #8C4637",
"a  c #97413D",
"s  c #9E4438",
"d  c #9B4833",
"f  c #945132",
"g  c #AE4F25",
"h  c #B6492D",
"j  c #B34A27",
"k  c #A24233",
"l  c #A64A36",
"z  c #A7493B",
"x  c #AE4C3B",
"c  c #AB4639",
"v  c #B54735",
"b  c #BA4635",
"n  c #B54B34",
"m  c #B84931",
"M  c #B7473C",
"N  c #BC453D",
"B  c #B5493A",
"V  c #AD5B3C",
"C  c #BE5934",
"Z  c #BD6C2C",
"A  c #BE6C22",
"S  c #AD673D",
"D  c #C26E1C",
"F  c #C1433A",
"G  c #C44B38",
"H  c #C95330",
"J  c #CB5D35",
"K  c #C75D39",
"L  c #D45D39",
"P  c #C4692A",
"I  c #CE6337",
"U  c #D76834",
"Y  c #D76432",
"T  c #DB753D",
"R  c #E86F3F",
"E  c #E26F3C",
"W  c #ED7E3D",
"Q  c #E3703D",
"!  c #872B47",
"~  c #882A40",
"^  c #8C2541",
"/  c #A63849",
"(  c #9F5350",
")  c #A34040",
"_  c #A54B43",
"`  c #AC4C44",
"'  c #B94642",
"]  c #B24A44",
"[  c #BA4840",
"{  c #A2514B",
"}  c #AA5C48",
"|  c #B5716A",
" . c #DA424C",
".. c #D96C4B",
"X. c #DF7243",
"o. c #C77744",
"O. c #E17943",
"+. c #E1596E",
"@. c #C66C6C",
"#. c #4E865A",
"$. c #4F9865",
"%. c #509B66",
"&. c #E6AE1F",
"*. c #CD922C",
"=. c #CB8C3C",
"-. c #D28D3A",
";. c #CB9531",
":. c #E98E2D",
">. c #E29125",
",. c #ED8D30",
"<. c #EB8B3C",
"1. c #F58E35",
"2. c #F98C34",
"3. c #F68538",
"4. c #F68A3C",
"5. c #FE883C",
"6. c #E49236",
"7. c #F09134",
"8. c #F19038",
"9. c #F5A42E",
"0. c #F5A935",
"q. c #FFE13B",
"w. c #B48141",
"e. c #CC894E",
"r. c #EB8C42",
"t. c #F28545",
"y. c #F38C44",
"u. c #F88A47",
"i. c #F3824B",
"p. c #F68B4A",
"a. c #FA8849",
"s. c #EC9046",
"d. c #F48454",
"f. c #FD8755",
"g. c #F9B54B",
"h. c #F1BD50",
"j. c #F6C24D",
"k. c #FCC946",
"l. c #FFDC45",
"z. c #FFDA48",
"x. c #F7C950",
"c. c #FFD551",
"v. c #FFE148",
"b. c #FCE45D",
"n. c #3634A5",
"m. c #472D84",
"M. c #4C2C9C",
"N. c #2A7BB6",
"B. c #FE7495",
"V. c #2F8A98",
"C. c #258893",
"Z. c #0A99AC",
"A. c #1491A1",
"S. c #1792B0",
"D. c #238EBE",
"F. c #278AA4",
"G. c #AE8C94",
"H. c #FFFCE3",
/* pixels */
"%.%.%.%.%.%.%.%.%.%.%.%.%.%.%.%.%.%.%.%.%.%.%.%.%.%.%.%.%.%.%.%.",
"%.%.%.%.%.%.%.%.%.%.%.%.%.%.%.%.%.%.%.%.%.%.%.%.%.%.%.%.%.%.%.%.",
"%.%.%.%.%.%.%.%.%.%.%.%.%.%.%.%.%.%.%.%.%.%.%.%.%.%.%.%.%.%.%.%.",
"%.%.%.%.%.%.%.%.%.%.%.%.%.%.%.%.%.%.%.%.%.%.%.%.%.%.%.%.%.%.%.%.",
"%.%.%.%.%.%.%.%.%.%.%.%.%.%.%.%.%.%.%.%.%.%.%.%.%.%.%.%.%.%.%.%.",
"%.%.%.%.%.%.%.%.%.%.%.%.%.%.%.%.%.%.%.%.%.%.%.%.%.%.%.%.%.%.%.%.",
"%.%.%.%.%.%.%.%.%.%.%.%.%.%.%.%.%.%.%.%.%.%.%.%.%.%.%.%.%.%.%.%.",
"%.%.%.%.%.%.%.%.%.%.> S t.t.t.t.t.t.t.i.t.$ > %.%.%.%.%.%.%.%.%.",
"%.%.%.%.%.%.%.< V Q E K K L I L j N b N v X.T R r < %.%.%.%.%.%.",
"%.%.%.%.%.%.%.g.H N m / ) s d k 8 ! 8 8 ~ ' b b P x.%.%.%.%.%.%.",
"%.%.%.%.%.%.%.k.e.f p 3 / 9 0 q B.B. .+.^ f y e j.h.%.%.%.%.%.%.",
"%.%.%.%.%.%.%.r.U *.o.} w.G.G.6.6.>.:.=.w.=.-.U b ` %.%.%.%.%.%.",
"%.%.%.%.%.%.%.w 3.W j.;.P @.| P A Z Z D Z W N M B ; %.%.%.%.%.%.",
"%.%.%.%.%.%.%.%.1.1.&.v.C b.s.V.m.d.2...O.4.[ F v %.%.%.%.%.%.%.",
"%.%.%.%.%.%.5 5 I 4.9.q.q.<.C.A.S.2 r.0.9.7.v b ` %.%.%.%.%.%.%.",
"%.%.%.%.%.%.5 5 , p.8.g.l.<.F.Z.D.M.C ,.2.h N ` #.%.%.%.%.%.%.%.",
"%.%.%.%.%.%.%.%.5 t W 1.1.a.7 N.n.4 Y 1.W h a - %.%.%.%.%.%.%.%.",
"%.%.%.%.%.%.%.%.5 5 : x i.y.5.g N N ' n & X 5 5 %.%.%.%.%.%.%.%.",
"%.%.%.%.%.%.%.%.%.%.%.= p z c _ l l k @ # 5 %.%.%.%.%.%.%.%.%.%.",
"%.%.%.%.%.%.%.%.%.%.%.%.%.* % + X O % 5 5 5 %.%.%.%.%.%.%.%.%.%.",
"%.%.%.%.%.%.%.%.%.%.%.%.%.%.%.+ . . %.%.%.%.%.%.%.%.%.%.%.%.%.%.",
"%.%.%.%.%.%.%.%.%.%.%.%.%.%.%.x + . %.%.%.%.%.%.%.%.%.%.%.%.%.%.",
"%.%.%.%.%.%.%.%.%.%.%.%.%.%.%.N   o $.%.%.%.%.%.%.%.%.%.%.%.%.%.",
"%.%.%.%.%.%.%.%.%.%.%.%.: g f.B N   N u %.%.%.%.%.%.%.%.%.%.%.%.",
"%.%.%.%.%.%.%.%.%.` K 4.c.z.h b v x G ..F B ] %.%.%.%.%.%.%.%.%.",
"%.%.%.%.%.%.%.%.%.` K 4.1.H.H.,.z.c.7.5.J B ] %.%.%.%.%.%.%.%.%.",
"%.%.%.%.%.%.%.%.%.%.%.{ _ d.p.a.y.u.d.] { ( %.%.%.%.%.%.%.%.%.%.",
"%.%.%.%.%.%.%.%.%.%.%.%.%.1 p u u i i 6 %.%.%.%.%.%.%.%.%.%.%.%.",
"%.%.%.%.%.%.%.%.%.%.%.%.%.%.%.%.%.%.%.%.%.%.%.%.%.%.%.%.%.%.%.%.",
"%.%.%.%.%.%.%.%.%.%.%.%.%.%.%.%.%.%.%.%.%.%.%.%.%.%.%.%.%.%.%.%.",
"%.%.%.%.%.%.%.%.%.%.%.%.%.%.%.%.%.%.%.%.%.%.%.%.%.%.%.%.%.%.%.%.",
"%.%.%.%.%.%.%.%.%.%.%.%.%.%.%.%.%.%.%.%.%.%.%.%.%.%.%.%.%.%.%.%."
};
