/* XPM */
static char *e6532a236c3c4a8ca51f6ceba109b73a7JmazNRJGSb0TJp6[] = {
/* columns rows colors chars-per-pixel */
"32 32 16 1 ",
"  c #509B66",
". c #354048",
"X c #484562",
"o c #64747A",
"O c #7F9B92",
"+ c #6C3C4A",
"@ c #7D5643",
"# c #DFC50B",
"$ c #C5910B",
"% c #505558",
"& c #69B57F",
"* c #296640",
"= c #C0BDB1",
"- c #DAD7C9",
"; c #879289",
": c #9B6B53",
/* pixels */
"                                ",
"                                ",
"            ..XXX..             ",
"           .oOOOOOo.            ",
"          .oOOOOOOOo.           ",
"         +@Oo@Oo@Oo@@+          ",
"         +@o#@O#@O#@@+          ",
"         .$@#$o#$o#@$.          ",
"         .@$#######$@.          ",
"         .#@%%%%%%%@#.          ",
"        &+$@$@$@$@$@$+          ",
"        &+#$#$#$#$#$#+          ",
"        &.$@$#$#$#$@$.          ",
"        &+#$#$#$#$#$#+          ",
"      ***++@$#$#$#$@+@+         ",
"      **+$@+++++++++@$#+        ",
"       .@$++=-----=++#$+        ",
"       ++@@+;-----;+@@@.        ",
"       +$$@.;=====+$##$+        ",
"       .@$$.+=====+####+        ",
"        .@@.$+@@@++####.        ",
"         ..X+$$$$$+$##$.        ",
"           X;@@@@@;....         ",
"           XXX;--=;X.           ",
"          ..@::+.+@+.           ",
"         ..+:@@@.++@..          ",
"        ...@@+.+.+@....         ",
"        ....+++........         ",
"         .............          ",
"           .........            ",
"                                ",
"                                "
};
