/* XPM */
static char *_4779dbf379245dff212479a951061d19FTvVZwfViU14UqF[] = {
/* columns rows colors chars-per-pixel */
"32 32 18 1 ",
"  c #509B66",
". c #354048",
"X c #484562",
"o c #64747A",
"O c #7F9B92",
"+ c #6C3C4A",
"@ c #DFC50B",
"# c #7D5643",
"$ c #C5910B",
"% c #505558",
"& c #69B57F",
"* c #DEBC70",
"= c #BB6749",
"- c #296640",
"; c #DAD7C9",
": c #879289",
"> c #C0BDB1",
", c #9B6B53",
/* pixels */
"                                ",
"                                ",
"             .XXX..             ",
"            .oOOOOo.            ",
"           .oOOOOOOo.           ",
"          +@#@O#@OO$+           ",
"          +@#@O#@Oo@+           ",
"          +@$@o$@o$@+           ",
"          +%@@@@@@@%+           ",
"           .%%%%%%#$.           ",
"        &&&+**=#$#$#.           ",
"        &&+=*+*$@$@$.           ",
"        &&+**.*#$#$@.&          ",
"        &&.##=#$@++#.&          ",
"      ----&.==+$+#+.&&          ",
"      ----&&.+++#$@+.&          ",
"        ----&#$;#@$@$.--        ",
"        --...$@;:.@$@.--        ",
"         .#$+@$;:++##$.         ",
"         .$#+>>>:#.@@@+         ",
"          ...####$.$@$.         ",
"            .$$$$#..++          ",
"            .####:.             ",
"            .$;;>:.             ",
"          .+$;;>:.+..           ",
"         ..#,,#+.+#+..          ",
"        ...+#,,...++...         ",
"        ...............         ",
"         .............          ",
"           .........            ",
"                                ",
"                                "
};
