/* XPM */
static char *db07a184f102457bb7d676ce22038d587GdNN7ZpnXtRDNxW[] = {
/* columns rows colors chars-per-pixel */
"32 32 18 1 ",
"  c #509B66",
". c #354048",
"X c #484562",
"o c #64747A",
"O c #7F9B92",
"+ c #6C3C4A",
"@ c #C5910B",
"# c #DFC50B",
"$ c #7D5643",
"% c #505558",
"& c #69B57F",
"* c #BB6749",
"= c #DEBC70",
"- c #296640",
"; c #879289",
": c #C0BDB1",
"> c #DAD7C9",
", c #9B6B53",
/* pixels */
"                                ",
"                                ",
"            ..XXX.              ",
"           .oOOOOo.             ",
"          .oOOOOOOo.            ",
"          +@OO#$O#$#+           ",
"          +#oO#$O#$#+           ",
"          +#@o#@o#@#+           ",
"          +%#######%+           ",
"          .@$%%%%%%.            ",
"        &&.$@$@$*==+            ",
"        &&.@#@#@=+=*+           ",
"        &&.#@$@$=.==+&          ",
"        &&.$++#@$*$$.&          ",
"      ----&.+$+++**.&&          ",
"      ----&++@#@.+.&&&          ",
"        ---..$@#$.&&----        ",
"        --.$.$#@$+.&----        ",
"          .@.+@$@#@.--          ",
"          .@..+$###.--          ",
"           ..++$##@.            ",
"            .$@.++.             ",
"           .;;$$$..             ",
"           X;:>>:@.             ",
"          .$X>>:@XX+.           ",
"         .$,$$XXX++$..          ",
"        ..+$,,+...+....         ",
"        ...............         ",
"         .............          ",
"           .........            ",
"                                ",
"                                "
};
