/* XPM */
static char *d0fa7e208e2e41388aa4d82e84d0487dvu7GfaqYJKbiClaW[] = {
/* columns rows colors chars-per-pixel */
"32 32 3 1 ",
"  c #509B66",
". c #1B1B1B",
"X c white",
/* pixels */
"                                ",
"         ....        .....      ",
"        ..XX.        .XXX.      ",
"        .XXX..      ..XXX.      ",
"        .XXXX..    ..XXXX.      ",
"        .XXXXX.    .XXXXX.      ",
"        ..XXXX. ....XXXX..      ",
"         .XXXX...XXXXXX..       ",
"        ..XXXXXXXXXXXX...       ",
"       ..XXXXXXXXXXXXXXX..      ",
"      ..XXXXXXXXXXXXXXXXX.      ",
"      .XXXXXXXXXXXXXXXXXX.      ",
"      .XXXXXXXXXXXXXXXXXX..     ",
"      .XXXXXXXXXXXXXXXXXXX.     ",
"      .XXXXXXXXXXXXXXXXXXX.     ",
"      .XXXXXXXXXXXXXXXXXX..     ",
"      .XXXXXXXXXXXXXXXXXX.      ",
"      ..XXXXXXXXXXXXXXXX..      ",
"       .XXXXXXXXXXXXXXXX..      ",
"      ..XXXXXXXXXXXXXXXXX..     ",
"      .XXXXXXXXXXXXXXXXXXX.     ",
"     ..XXXXXXXXXXXXXXXXXXX..    ",
"     .XXXXXXXXXXXXXXXXXXXXX.    ",
"     .XXXXXXXX.....XXXXXXXX.    ",
"     ..XXX.XXX.XXX.XXX..XX..    ",
"      .XX..XXX.XXX.XXX.....     ",
"      .....XXXXXXXXXXX. ..      ",
"          .XXXXXXXXXXX.         ",
"          .XXXXXXXXXXX.         ",
"          .XXXXX.XXXX..         ",
"          ...XX....XX.          ",
"            ....  ....          "
};
