/* XPM */
static char *d3edf0af78164fc9dd29f4b879d34e4d68He1V9xfJqeFheC[] = {
/* columns rows colors chars-per-pixel */
"32 32 6 1 ",
"  c #509B66",
". c black",
"X c #1B1B1B",
"o c white",
"O c #296640",
"+ c red",
/* pixels */
"                   ....         ",
"                  XXooXX        ",
"                  XooooX        ",
"                 XXooooX        ",
"                 XooooXX        ",
"                 XooooX         ",
"          XXXXXXXXoooXX         ",
"         XXoooooooooXX          ",
"        XXoooooooooooXX         ",
"        XoooooooooooooXX        ",
"        XooooooooooooooX        ",
"       XXooooooooooooooXX       ",
"       XooooXXooooooooooX       ",
"       XXoooXXooooooooooX       ",
"      OXXoooXXooooooooooX       ",
"      OOXooo+XoooooooooXX       ",
"        XXoooooooooooooX        ",
"        XXooooooooooooXX        ",
"         XXXooooooooXXX         ",
"           XooooooooXX          ",
"          XXoooooooooX          ",
"          XooooooooooXX         ",
"          XXoooooXooooX         ",
"           XooooXXooooX         ",
"           XooooXoooooX         ",
"           XXoooXoooooX         ",
"            XXooXXooXXX         ",
"             XXXoXXXXoXX        ",
"            XXoXoooooooX        ",
"           XXooXXXXXoooX        ",
"           XoooX XooooXX        ",
"           XXXXX XXXXXX         "
};
