/* XPM */
static char *b8a1c7f5e9034325ed76c6030b039e1dx91QLNPj1EAyZhI8[] = {
/* columns rows colors chars-per-pixel */
"32 32 5 1 ",
"  c #509B66",
". c #1B1B1B",
"X c white",
"o c #296640",
"O c red",
/* pixels */
"         ....                   ",
"        ..XX..                  ",
"        .XXXX.                  ",
"        .XXXX..                 ",
"        ..XXXX.                 ",
"         .XXXX.                 ",
"         ..XXX........          ",
"          ..XXXXXXXXX..         ",
"         ..XXXXXXXXXXX..        ",
"        ..XXXXXXXXXXXXX.        ",
"        .XXXXXXXXXXXXXX.        ",
"       ..XXXXXXXXXXXXXX..       ",
"       .XXXXXXXXXX..XXXX.       ",
"       .XXXXXXXXXX..XXX..       ",
"      o.XXXXXXXXXX..XXX..       ",
"      o..XXXXXXXXX.OXXX.        ",
"        .XXXXXXXXXXXXX..        ",
"        ..XXXXXXXXXXXX..        ",
"         ...XXXXXXXX...         ",
"          ..XXXXXXXX.o          ",
"          .XXXXXXXXX..          ",
"         ..XXXXXXXXXX.          ",
"         .XXXX.XXXXX..          ",
"         .XXXX..XXXX.           ",
"         .XXXXX.XXXX.           ",
"         .XXXXX.XXX..           ",
"         ...XX..XX..            ",
"        ..X....X...             ",
"        .XXXXXXX.X..            ",
"        .XXX.....XX..           ",
"        ..XXXX. .XXX.           ",
"         ...... .....           "
};
