/* XPM */
static char *f0e57f9f859545fcf23bd93decd358a41420lfvhyIJfsrxp[] = {
/* columns rows colors chars-per-pixel */
"32 32 121 2 ",
"   c #509B66",
".  c #632929",
"X  c #71251D",
"o  c #773423",
"O  c #78442C",
"+  c #784637",
"@  c #73442E",
"#  c #5D282E",
"$  c #78271C",
"%  c #BD5811",
"&  c #D66A0D",
"*  c #E6941E",
"=  c #EBC336",
"-  c #EBC857",
";  c #E1BA34",
":  c #7A291C",
">  c #672526",
",  c #963A17",
"<  c #DE730F",
"1  c #D7690E",
"2  c #C95510",
"3  c #AE4315",
"4  c #A83F16",
"5  c #C45011",
"6  c #D2640F",
"7  c #E78C16",
"8  c #B75417",
"9  c #9A441F",
"0  c #DF7617",
"q  c #E88010",
"w  c #E08219",
"e  c #BB6F23",
"r  c #B27E2F",
"t  c #D9973C",
"y  c #EB9819",
"u  c #F2A11C",
"i  c #C46815",
"p  c #9C4934",
"a  c #CF6326",
"s  c #D66612",
"d  c #E78C17",
"f  c #F7A71D",
"g  c #FDD734",
"h  c #FDD949",
"j  c #F9A61C",
"k  c #DD730D",
"l  c #AE4A13",
"z  c #6A3538",
"x  c #B65933",
"c  c #CF662A",
"v  c #CF6115",
"b  c #E37A0F",
"n  c #F9A51C",
"m  c #FAA81D",
"M  c #EC8711",
"N  c #BC5112",
"B  c #6F2824",
"V  c #296640",
"C  c #5D2E38",
"Z  c #702629",
"A  c #B5562B",
"S  c #CD5E17",
"D  c #E0770E",
"F  c #D56511",
"G  c #C65712",
"H  c #622327",
"J  c #509A66",
"K  c #403547",
"L  c #62282F",
"P  c #A33C17",
"I  c #B54811",
"U  c #73241F",
"Y  c #5A4443",
"T  c #4C1B2E",
"R  c #A73E15",
"E  c #AD3F13",
"W  c #591524",
"Q  c #4C1B2F",
"!  c #B15630",
"~  c #C45617",
"^  c #5B1824",
"/  c #383245",
"(  c #58212F",
")  c #C1683B",
"_  c #EC901D",
"`  c #6E2821",
"'  c #373044",
"]  c #383345",
"[  c #4F9966",
"{  c #57232F",
"}  c #6F2728",
"|  c #BC5F35",
" . c #DD7619",
".. c #F8B725",
"X. c #DC7E13",
"o. c #7A3B25",
"O. c #6A2F28",
"+. c #4F9965",
"@. c #509966",
"#. c #3C1D33",
"$. c #7F372D",
"%. c #AB5430",
"&. c #C55A19",
"*. c #DF770F",
"=. c #FAC92E",
"-. c #F6B332",
";. c #CA8E28",
":. c #A85A1E",
">. c #421F34",
",. c #3E293D",
"<. c #441E33",
"1. c #883C1C",
"2. c #AC581A",
"3. c #B29036",
"4. c #A98D53",
"5. c #431C32",
"6. c #42283C",
"7. c #42293D",
"8. c #462337",
"9. c #452539",
"0. c #4B8761",
/* pixels */
"                                                                ",
"                                                                ",
"                    . . X X o o O O + + @ @                     ",
"                    . . X X o o O O + + @ @                     ",
"            # # $ $ % % & & * * = = - - ; ; : : > >             ",
"            # # $ $ % % & & * * = = - - ; ; : : > >             ",
"            , , < < 1 1 2 2 3 3 4 4 5 5 6 6 7 7 8 8             ",
"            , , < < 1 1 2 2 3 3 4 4 5 5 6 6 7 7 8 8             ",
"            9 9 0 0 q q w w e e r r t t y y u u i i             ",
"            9 9 0 0 q q w w e e r r t t y y u u i i             ",
"            p p a a s s d d f f g g h h j j k k l l             ",
"            p p a a s s d d f f g g h h j j k k l l             ",
"            z z x x c c v v b b n n m m M M N N B B             ",
"            z z x x c c v v b b n n m m M M N N B B             ",
"        V V V V C C Z Z A A S S D D F F G G H H         J       ",
"        V V V V C C Z Z A A S S D D F F G G H H                 ",
"            V V V V K K L L P P I I U U Y Y                     ",
"            V V V V K K L L P P I I U U Y Y                     ",
"                        T T R R E E W W                         ",
"                        T T R R E E W W                         ",
"                        Q Q ! ! ~ ~ ^ ^                         ",
"                        Q Q ! ! ~ ~ ^ ^                         ",
"                    / / ( ( ) ) _ _ ` ` ' ]                     ",
"                    / / ( ( ) ) _ _ ` ` ' '     [ [ J J         ",
"                { { } } | |  . .....X.X.o.o.O.O.    +.+.@.J     ",
"                { { } } | |  . .....X.X.o.o.O.O.    +.+.J       ",
"            #.#.$.$.%.%.&.&.*.*.=.=.-.-.;.;.:.:.>.>.[ @.J       ",
"            #.#.$.$.%.%.&.&.*.*.=.=.-.-.;.;.:.:.>.>.[ J         ",
"                ,.,.<.<.1.1.2.2.3.3.4.4.5.5.6.6.    J           ",
"                ,.,.<.<.1.1.2.2.3.3.4.4.5.5.6.6.    J           ",
"                        7.7.8.8.8.8.9.9.0.                      ",
"                        7.7.8.8.8.8.9.9.0.                      "
};
